<svg aria-hidden="true" style="position: absolute; width: 0; height: 0; overflow: hidden;" version="1.1" xmlns="http://www.w3.org/2000/svg" xmlns:xlink="http://www.w3.org/1999/xlink">
<defs>
<symbol id="icon-logo" viewBox="0 0 94 32">
<path fill="#61a568" style="fill: var(--color1, #61a568)" d="M35.526 10.468c-0.145-0.149-0.335-0.241-0.538-0.261s-0.406 0.033-0.576 0.151c-0.169 0.118-0.294 0.292-0.353 0.494s-0.048 0.419 0.030 0.613 0.219 0.355 0.399 0.455c0.18 0.099 0.387 0.131 0.587 0.090s0.38-0.152 0.51-0.315c0.129-0.163 0.2-0.367 0.201-0.578 0-0.121-0.023-0.24-0.068-0.352s-0.11-0.213-0.193-0.298z"></path>
<path fill="#61a568" style="fill: var(--color1, #61a568)" d="M39.299 7.861c0.123-0.128 0.207-0.291 0.241-0.468s0.016-0.361-0.050-0.528c-0.067-0.167-0.18-0.31-0.325-0.41s-0.316-0.155-0.49-0.155c-0.176-0.003-0.35 0.048-0.498 0.147s-0.264 0.242-0.333 0.409c-0.069 0.168-0.088 0.353-0.055 0.532s0.118 0.344 0.242 0.473c0.082 0.088 0.181 0.158 0.29 0.206s0.226 0.072 0.344 0.072c0.118 0 0.235-0.025 0.344-0.072s0.208-0.118 0.29-0.206z"></path>
<path fill="#61a568" style="fill: var(--color1, #61a568)" d="M39.254 14.317c-0.083-0.086-0.181-0.154-0.289-0.2s-0.224-0.070-0.341-0.070c-0.117 0-0.233 0.024-0.341 0.070s-0.206 0.114-0.289 0.2c-0.124 0.128-0.208 0.291-0.242 0.469s-0.017 0.362 0.050 0.529c0.067 0.167 0.181 0.31 0.326 0.411s0.317 0.154 0.492 0.154c0.175 0 0.346-0.054 0.492-0.154s0.259-0.243 0.326-0.411c0.067-0.167 0.085-0.351 0.050-0.529s-0.118-0.341-0.242-0.469h0.006z"></path>
<path fill="#61a568" style="fill: var(--color1, #61a568)" d="M47.702 6.965c-0.496-1.839-1.516-3.48-2.927-4.711-3.081-2.69-7.106-2.804-11.751-1.229-0.89 0.298-1.82 0.447-2.756 0.443h-11.091c-0.934 0.004-1.864-0.146-2.753-0.443-4.646-1.575-8.67-1.462-11.751 1.229-1.411 1.232-2.431 2.873-2.93 4.711-2.382 8.79-2.415 16.342 0.473 22.369 1.314 2.727 3.348 3.23 5.905 2.108 0.745-0.332 1.446-0.761 2.086-1.275 1.846-1.463 3.388-3.295 4.536-5.387 0.2-0.37 0.393-0.746 0.554-1.139 1.288-2.833 3.245-4.462 6.23-4.145l3.197 0.067 3.194-0.067c2.994-0.303 4.926 1.325 6.233 4.145 0.174 0.38 0.354 0.756 0.554 1.125 1.146 2.097 2.688 3.934 4.536 5.401 0.641 0.514 1.342 0.943 2.086 1.275 2.556 1.122 4.591 0.619 5.905-2.108 2.888-6.027 2.846-13.578 0.47-22.369zM10.993 17.314c-1.19 0.001-2.353-0.364-3.342-1.047s-1.761-1.654-2.216-2.791c-0.456-1.136-0.575-2.387-0.344-3.594s0.804-2.315 1.645-3.185c0.841-0.87 1.913-1.463 3.079-1.703s2.376-0.117 3.475 0.353c1.099 0.471 2.039 1.268 2.7 2.291s1.014 2.226 1.014 3.456c-0.001 1.649-0.634 3.23-1.761 4.396s-2.655 1.822-4.25 1.824zM23.488 17.287h-2.798v-1.282h2.798v1.282zM28.759 17.287h-2.798v-1.282h2.798v1.282zM37.001 5.487c0.444-0.459 1.046-0.716 1.674-0.716s1.23 0.258 1.674 0.716c0.331 0.342 0.556 0.778 0.647 1.253s0.044 0.967-0.135 1.414c-0.179 0.447-0.483 0.829-0.872 1.098s-0.847 0.412-1.315 0.412c-0.468 0-0.925-0.143-1.314-0.412s-0.692-0.651-0.872-1.098-0.226-0.939-0.135-1.414c0.091-0.475 0.316-0.911 0.647-1.253zM33.227 12.849c-0.444-0.459-0.693-1.082-0.693-1.731s0.249-1.272 0.693-1.731c0.444-0.459 1.046-0.717 1.674-0.717s1.23 0.258 1.674 0.717c0.22 0.227 0.394 0.497 0.513 0.794s0.18 0.616 0.18 0.937c0 0.322-0.061 0.64-0.18 0.937s-0.293 0.567-0.513 0.794-0.481 0.408-0.768 0.531c-0.287 0.123-0.595 0.186-0.906 0.186-0.628 0-1.23-0.258-1.674-0.717zM40.31 16.704c-0.388 0.403-0.899 0.655-1.447 0.711s-1.097-0.085-1.554-0.4c-0.458-0.315-0.796-0.785-0.956-1.329s-0.133-1.129 0.077-1.655c0.21-0.526 0.59-0.96 1.075-1.228s1.045-0.354 1.584-0.243c0.539 0.111 1.025 0.412 1.374 0.852s0.539 0.991 0.539 1.56c0 0.322-0.062 0.641-0.182 0.938s-0.296 0.567-0.517 0.793h0.006zM44.084 12.802c-0.331 0.343-0.754 0.576-1.213 0.671s-0.936 0.046-1.369-0.14c-0.433-0.186-0.803-0.5-1.063-0.903s-0.399-0.877-0.399-1.361c0-0.485 0.139-0.958 0.399-1.361s0.63-0.717 1.063-0.903c0.433-0.185 0.909-0.234 1.369-0.14s0.882 0.328 1.213 0.671c0.443 0.461 0.691 1.085 0.69 1.734s-0.252 1.273-0.696 1.732h0.006z"></path>
<path fill="#61a568" style="fill: var(--color1, #61a568)" d="M10.993 6.409c-0.896 0-1.772 0.275-2.517 0.79s-1.326 1.246-1.668 2.103-0.433 1.798-0.258 2.707c0.175 0.909 0.606 1.744 1.24 2.399s1.441 1.101 2.319 1.282c0.879 0.181 1.79 0.088 2.617-0.267s1.535-0.955 2.033-1.726c0.498-0.77 0.763-1.676 0.763-2.603-0.001-1.242-0.478-2.433-1.328-3.312s-2.001-1.372-3.202-1.373zM14.815 11.127c0 0.203-0.078 0.398-0.217 0.541s-0.327 0.224-0.524 0.224h-2.35v2.424c-0.012 0.195-0.096 0.377-0.234 0.511s-0.32 0.208-0.508 0.208-0.37-0.074-0.508-0.208c-0.138-0.133-0.221-0.316-0.234-0.511v-2.431h-2.337c-0.196 0-0.385-0.081-0.524-0.224s-0.217-0.338-0.217-0.541c0-0.203 0.078-0.398 0.217-0.541s0.327-0.224 0.524-0.224h2.347v-2.431c-0.007-0.105 0.008-0.21 0.042-0.31s0.088-0.19 0.157-0.267c0.070-0.077 0.154-0.138 0.247-0.18s0.194-0.064 0.296-0.064 0.202 0.022 0.296 0.064c0.093 0.042 0.177 0.103 0.247 0.18s0.123 0.168 0.157 0.267c0.034 0.099 0.048 0.204 0.042 0.31v2.431h2.35c0.196 0.003 0.383 0.085 0.52 0.23s0.213 0.34 0.211 0.542z"></path>
<path fill="#61a568" style="fill: var(--color1, #61a568)" d="M42.403 10.155c-0.205 0-0.404 0.074-0.562 0.208s-0.267 0.322-0.306 0.53c-0.040 0.208-0.009 0.424 0.088 0.611s0.253 0.333 0.443 0.414c0.189 0.081 0.4 0.091 0.596 0.029s0.365-0.192 0.479-0.369c0.113-0.177 0.164-0.388 0.144-0.599s-0.111-0.408-0.257-0.557c-0.166-0.17-0.391-0.266-0.625-0.266z"></path>
<path fill="#61a568" style="fill: var(--color1, #61a568)" d="M58.362 10.761c-0.298 0.141-0.609 0.252-0.927 0.333-0.301 0.079-0.61 0.121-0.921 0.127-0.688 0.015-1.369-0.142-1.986-0.456-0.546-0.281-1.003-0.718-1.317-1.259-0.314-0.555-0.475-1.188-0.464-1.831-0.023-0.76 0.147-1.513 0.493-2.184 0.305-0.569 0.765-1.032 1.323-1.332 0.568-0.299 1.198-0.451 1.835-0.443 0.41-0.003 0.819 0.048 1.217 0.15 0.349 0.088 0.686 0.219 1.005 0.39l-0.454 1.332c-0.244-0.13-0.503-0.229-0.769-0.296-0.265-0.080-0.539-0.125-0.815-0.133-0.644-0.046-1.28 0.169-1.774 0.599-0.216 0.236-0.382 0.516-0.488 0.822s-0.148 0.632-0.124 0.956c-0.010 0.415 0.094 0.825 0.299 1.182 0.199 0.337 0.489 0.607 0.834 0.776 0.383 0.185 0.801 0.278 1.223 0.27 0.332 0.020 0.664-0.045 0.966-0.19v-0.892h-1.227v-1.399h2.646v3.107c-0.169 0.159-0.364 0.285-0.576 0.373z"></path>
<path fill="#61a568" style="fill: var(--color1, #61a568)" d="M64.074 9.689h-2.357l-0.58 1.438h-1.381l3.219-7.658h0.077l3.22 7.658h-1.61l-0.589-1.438zM63.61 8.47l-0.686-1.788-0.715 1.788h1.401z"></path>
<path fill="#61a568" style="fill: var(--color1, #61a568)" d="M74.586 3.476v7.658h-1.4v-3.513l-2.318 3.406h-0.032l-2.231-3.187v3.286h-1.352v-7.658l3.603 5.284 3.69-5.284 0.042 0.007z"></path>
<path fill="#61a568" style="fill: var(--color1, #61a568)" d="M77.822 3.775v7.352h-1.4v-7.352h1.4z"></path>
<path fill="#61a568" style="fill: var(--color1, #61a568)" d="M86.061 3.775v7.658h-0.039l-4.974-4.651 0.029 4.345h-1.42v-7.658h0.058l4.965 4.731-0.029-4.425h1.41z"></path>
<path fill="#61a568" style="fill: var(--color1, #61a568)" d="M93.076 10.761c-0.298 0.141-0.609 0.252-0.927 0.333-0.3 0.079-0.61 0.121-0.92 0.127-0.688 0.015-1.37-0.142-1.987-0.456-0.546-0.281-1.003-0.718-1.317-1.259-0.314-0.555-0.475-1.188-0.464-1.831-0.023-0.76 0.147-1.513 0.493-2.184 0.305-0.569 0.766-1.032 1.324-1.332 0.568-0.307 1.2-0.466 1.841-0.463 0.411-0.003 0.82 0.048 1.218 0.15 0.348 0.088 0.686 0.219 1.004 0.39l-0.454 1.332c-0.244-0.13-0.503-0.229-0.77-0.296-0.265-0.080-0.539-0.125-0.815-0.133-0.644-0.046-1.28 0.169-1.773 0.599-0.216 0.236-0.382 0.516-0.488 0.822s-0.147 0.632-0.124 0.956c-0.009 0.415 0.094 0.825 0.299 1.182 0.2 0.337 0.489 0.607 0.834 0.776 0.382 0.185 0.801 0.278 1.223 0.27 0.332 0.020 0.664-0.045 0.966-0.19v-0.872h-1.227v-1.398h2.647v3.107c-0.171 0.16-0.368 0.286-0.583 0.373z"></path>
<path fill="#61a568" style="fill: var(--color1, #61a568)" d="M57.654 22.974c-0.412 0.157-0.849 0.235-1.288 0.23-0.676 0.017-1.343-0.156-1.932-0.499-0.531-0.314-0.966-0.775-1.256-1.332-0.292-0.57-0.441-1.206-0.435-1.851-0.012-0.686 0.137-1.365 0.435-1.978 0.276-0.573 0.705-1.051 1.236-1.378 0.548-0.329 1.173-0.497 1.806-0.483 0.406-0.004 0.81 0.057 1.198 0.18 0.339 0.107 0.664 0.258 0.966 0.45l-0.551 1.368c-0.443-0.374-0.993-0.585-1.565-0.599-0.36-0-0.712 0.107-1.014 0.31-0.318 0.208-0.577 0.499-0.753 0.842-0.189 0.364-0.285 0.772-0.28 1.185-0.009 0.43 0.080 0.855 0.261 1.242 0.165 0.347 0.423 0.637 0.744 0.836 0.343 0.206 0.734 0.309 1.13 0.3 0.32 0.005 0.639-0.055 0.937-0.176 0.237-0.095 0.456-0.235 0.644-0.413l0.58 1.299c-0.262 0.202-0.553 0.36-0.863 0.469z"></path>
<path fill="#61a568" style="fill: var(--color1, #61a568)" d="M61.315 15.762v5.953h3.342v1.398h-4.742v-7.352h1.401z"></path>
<path fill="#61a568" style="fill: var(--color1, #61a568)" d="M67.564 21.066c0.138 0.215 0.323 0.394 0.541 0.52 0.22 0.132 0.47 0.201 0.724 0.2 0.267 0.003 0.53-0.066 0.763-0.2 0.221-0.123 0.408-0.302 0.544-0.52 0.127-0.197 0.197-0.429 0.2-0.666v-4.638h1.381v4.661c0.006 0.502-0.128 0.996-0.386 1.422-0.256 0.426-0.618 0.771-1.050 0.999-0.449 0.234-0.946 0.356-1.449 0.356s-0.999-0.122-1.449-0.356c-0.428-0.228-0.788-0.574-1.040-0.999-0.255-0.427-0.387-0.92-0.38-1.422v-4.661h1.4v4.635c0.001 0.239 0.070 0.472 0.2 0.669z"></path>
<path fill="#61a568" style="fill: var(--color1, #61a568)" d="M77.941 19.941c0.21 0.287 0.324 0.638 0.322 0.999 0.023 0.313-0.029 0.628-0.154 0.915s-0.316 0.537-0.558 0.727c-0.521 0.365-1.141 0.549-1.771 0.526h-2.37v-7.345h2.086c0.625-0.036 1.246 0.129 1.777 0.473 0.211 0.154 0.381 0.361 0.493 0.602s0.164 0.507 0.151 0.773c0.007 0.335-0.069 0.667-0.222 0.962-0.147 0.276-0.364 0.506-0.628 0.666 0.343 0.156 0.643 0.397 0.873 0.703zM74.808 18.769h0.856c0.111 0.007 0.222-0.012 0.326-0.055s0.197-0.108 0.273-0.192c0.143-0.165 0.219-0.381 0.212-0.603 0.007-0.108-0.011-0.215-0.053-0.314s-0.107-0.185-0.188-0.252c-0.195-0.14-0.43-0.208-0.666-0.193h-0.753l-0.006 1.608zM76.501 21.559c0.102-0.063 0.186-0.153 0.242-0.261s0.084-0.229 0.080-0.352c0-0.52-0.399-0.779-1.198-0.779h-0.802v1.598h0.898c0.273 0.010 0.544-0.062 0.779-0.206z"></path>
</symbol>
<symbol id="icon-bubbles2" viewBox="0 0 32 32">
<path fill="#61a568" style="fill: var(--color1, #61a568)" d="M13.333 0c7.364 0 13.333 5.435 13.333 12.139s-5.97 12.139-13.333 12.139c-0.708 0-1.401-0.051-2.079-0.147-2.864 3.209-6.172 3.785-9.476 3.869v-0.785c1.785-0.98 3.222-2.765 3.222-4.804 0-0.285-0.020-0.564-0.056-0.837-3.015-2.225-4.944-5.625-4.944-9.434 0-6.704 5.97-12.139 13.333-12.139v-0.001zM27.667 27.209c0 1.748 1.009 3.278 2.556 4.118v0.673c-2.865-0.072-5.494-0.566-7.976-3.316-0.588 0.083-1.188 0.126-1.802 0.126-2.652 0-5.095-0.805-7.044-2.157 4.019-0.016 7.812-1.464 10.69-4.084 1.45-1.32 2.595-2.87 3.4-4.605 0.854-1.84 1.288-3.799 1.288-5.825 0-0.326-0.012-0.651-0.035-0.974 2.016 1.873 3.257 4.426 3.257 7.24 0 3.265-1.671 6.179-4.284 8.086-0.032 0.234-0.049 0.474-0.049 0.718z"></path>
</symbol>
<symbol id="icon-earth" viewBox="0 0 32 32">
<path fill="#61a568" style="fill: var(--color1, #61a568)" d="M16 0c-8.837 0-16 7.163-16 16s7.163 16 16 16c8.837 0 16-7.163 16-16s-7.163-16-16-16zM16 30c-1.967 0-3.84-0.407-5.538-1.139l7.286-8.197c0.163-0.183 0.253-0.419 0.253-0.664v-3c0-0.552-0.448-1-1-1-3.531 0-7.256-3.671-7.293-3.707-0.188-0.188-0.442-0.293-0.707-0.293h-4c-0.552 0-1 0.448-1 1v6c0 0.379 0.214 0.725 0.553 0.894l3.447 1.724v5.871c-3.627-2.53-6-6.732-6-11.489 0-2.147 0.484-4.181 1.348-6h3.652c0.265 0 0.52-0.105 0.707-0.293l4-4c0.188-0.188 0.293-0.442 0.293-0.707v-2.419c1.268-0.377 2.61-0.581 4-0.581 2.2 0 4.281 0.508 6.134 1.412-0.13 0.109-0.256 0.224-0.376 0.345-1.133 1.133-1.757 2.64-1.757 4.243s0.624 3.109 1.757 4.243c1.139 1.139 2.663 1.758 4.239 1.758 0.099 0 0.198-0.002 0.297-0.007 0.432 1.619 1.211 5.833-0.263 11.635-0.014 0.055-0.022 0.109-0.026 0.163-2.541 2.596-6.084 4.208-10.004 4.208h-0.002z"></path>
</symbol>
<symbol id="icon-steam" viewBox="0 0 32 32">
<path fill="#61a568" style="fill: var(--color1, #61a568)" d="M9.498 26.125c0.848 0 1.681-0.41 2.187-1.169 0.804-1.206 0.478-2.836-0.728-3.64l-2.065-1.377c0.353-0.096 0.725-0.149 1.109-0.149 2.325 0 4.209 1.884 4.209 4.209s-1.885 4.209-4.209 4.209c-2.263 0-4.108-1.785-4.205-4.024l2.249 1.499c0.448 0.298 0.953 0.441 1.454 0.441l-0.001 0.001zM26.667 0c2.934 0 5.333 2.4 5.333 5.334v21.332c0 2.936-2.399 5.334-5.333 5.334h-21.333c-2.934 0-5.334-2.398-5.334-5.334v-6.345l3.792 2.528c-0.364 1.974 0.217 4.088 1.744 5.615 2.466 2.466 6.463 2.466 8.929 0 1.515-1.515 2.098-3.607 1.752-5.568l7.783-6.968c1.445-0.207 2.838-0.867 3.95-1.979 2.734-2.734 2.734-7.166 0-9.899s-7.166-2.734-9.9 0c-1.112 1.112-1.771 2.505-1.979 3.95l-6.397 9.695c-0.995 0.051-1.981 0.336-2.866 0.856l-6.808-4.539v-8.678c0-2.934 2.4-5.334 5.334-5.334h21.333zM28 9c0-2.761-2.239-5-5-5s-5 2.239-5 5c0 2.761 2.239 5 5 5s5-2.239 5-5zM20 9c0-1.657 1.343-3 3-3s3 1.343 3 3c0 1.657-1.343 3-3 3s-3-1.343-3-3z"></path>
</symbol>
<symbol id="icon-basket" viewBox="0 0 32 32">
<path fill="#61a568" style="fill: var(--color1, #61a568)" d="M32 20.364v-17.455h-24c0-1.607-0.895-2.909-2-2.909h-6v2.909h4l1.502 18.73c-0.915 1.066-1.502 2.704-1.502 4.543 0 3.213 1.791 5.818 4 5.818h24v-2.909h-24c-1.105 0-2-1.302-2-2.909 0-0.010 0-0.020 0-0.029l26-5.789z"></path>
</symbol>
<symbol id="icon-headphone" viewBox="0 0 32 32">
<path fill="#61a568" style="fill: var(--color1, #61a568)" d="M32 15.859c0-8.759-7.163-15.859-16-15.859s-16 7.1-16 15.859c0 1.902 0.338 3.726 0.958 5.416-0.609 1.029-0.958 2.226-0.958 3.505 0 3.495 2.608 6.386 6 6.868v-13.735c-0.997 0.142-1.927 0.491-2.742 1.003-0.168-0.828-0.258-1.684-0.258-2.561 0-7.117 5.82-12.886 13-12.886s13 5.769 13 12.886c0 0.877-0.088 1.734-0.257 2.561-0.816-0.512-1.745-0.862-2.743-1.004v13.736c3.392-0.481 6-3.372 6-6.868 0-1.279-0.349-2.476-0.958-3.505 0.62-1.69 0.958-3.514 0.958-5.417v0.001z"></path>
</symbol>
<symbol id="icon-cup" viewBox="0 0 32 32">
<path fill="#61a568" style="fill: var(--color1, #61a568)" d="M26 4.521v-4.521h-20v4.521h-6v4.521c0 3.746 2.686 6.782 6 6.782 0.627 0 1.232-0.108 1.801-0.311 1.443 2.332 3.644 4.019 6.199 4.606v7.008h-2c-2.209 0-4 2.024-4 4.521h16c0-2.497-1.791-4.521-4-4.521h-2v-7.008c2.555-0.587 4.756-2.274 6.199-4.606 0.568 0.202 1.173 0.311 1.801 0.311 3.314 0 6-3.036 6-6.782v-4.521h-6zM6 13.14c-1.999 0-3.625-1.838-3.625-4.097v-2.261h3.625v2.261c0 1.42 0.232 2.777 0.655 4.030-0.213 0.044-0.431 0.068-0.655 0.068zM29.625 9.042c0 2.259-1.626 4.097-3.625 4.097-0.224 0-0.442-0.024-0.655-0.068 0.423-1.251 0.655-2.61 0.655-4.029v-2.261h3.625v2.261z"></path>
</symbol>
<symbol id="icon-PC" viewBox="0 0 102 32">
<path fill="#0d0802" style="fill: var(--color1, #0d0802)" d="M102.017 8.094c-0.167-0.203-0.377-0.367-0.616-0.48s-0.5-0.171-0.765-0.171h-6.285c-0.413-0.002-0.814 0.137-1.135 0.395s-0.541 0.618-0.624 1.019l-0.585 3.586c-0.793-0.173-1.604-0.257-2.416-0.251h-0.336l0.388-2.638c0.053-0.257 0.048-0.522-0.016-0.776s-0.183-0.492-0.35-0.695c-0.167-0.203-0.378-0.367-0.617-0.479s-0.5-0.171-0.765-0.171h-6.28c-0.411 0-0.81 0.141-1.129 0.398s-0.537 0.616-0.62 1.016l-0.15 0.738c-0.403-0.589-0.918-1.096-1.516-1.491-1.086-0.666-2.344-1.006-3.621-0.978-1.147-0.007-2.282 0.24-3.321 0.722-0.321-0.27-0.727-0.419-1.148-0.42h-25.383c-0.295-0.003-0.586 0.067-0.846 0.203s-0.484 0.334-0.649 0.576l-0.052 0.077c-0.042-0.068-0.089-0.133-0.14-0.195-0.167-0.203-0.377-0.367-0.616-0.48s-0.5-0.171-0.765-0.171h-5.737c0.46 0-2.343-2.561-4.195-2.894s-2.348-3.217-4.578-3.238c-0.729 0-1.376 0.441-2.095 0.512 0.745 0.2 2.876 0.871 1.448 1.778-1.107 0.702-2.4-0.102-3.13-0.922-1.614-1.813-3.404-2.838-5.912-2.049 0.843 0.154 4.138 1.675 1.904 2.269-1.097 0.287-1.909-0.512-2.623-1.214-0.895-0.871-1.49-1.235-2.778-1.158-0.553 0.067-1.11 0.087-1.666 0.061-0.555-0.090-1.087-0.285-1.567-0.574-0.064 0.204-0.083 0.419-0.054 0.63s0.104 0.414 0.22 0.594c0.284 0.389 0.735 0.313 1.102 0.558 1.035 0.676-0.3 1.491-0.998 1.455-0.201 0.008-0.402-0.024-0.59-0.095s-0.36-0.179-0.505-0.317c-0.145-0.138-0.26-0.304-0.339-0.488s-0.118-0.381-0.117-0.581c-0.336 1.137-0.517 1.68 0.186 2.587 0.331 0.42 1.009 1.393-0.057 1.301-0.957-0.082-0.559-1.301-1.2-1.711-1.086-0.692-2.586 0.594-2.798 1.593 1.64-1.358 3.507 0.907 1.754 1.501-0.585 0.22-1.233 0.202-1.804-0.050s-1.018-0.719-1.242-1.297c0.481 1.025 0.083 1.952 1.505 2.234 0.993 0.2 2.25-0.241 3.104 0.487 1.004 0.866-0.16 2.561-1.34 2.264-1.267-0.287-1.748-2.177-3.104-2.269-1.060-0.072-1.867 1.337-2.436 2.008 1.035-0.702 1.96-0.973 2.798 0.097 0.419 0.538 0.657 1.148 1.226 1.562s0.957 0.446 1.552 0.835c1.402 0.973-0.367 1.537-1.417 1.025-1.205-0.62-1.247-1.721-2.778-1.757-1.329-0.056-3.398 0.958-3.398 0.958s2.747-0.082 3.921 0.584c0.364 0.194 0.645 0.512 0.791 0.895s0.148 0.805 0.005 1.19c-0.305 0.763-2.002 1.378-2.54 0.702-0.11-0.112-0.187-0.252-0.224-0.404s-0.031-0.311 0.016-0.461 0.134-0.284 0.252-0.388c0.118-0.105 0.261-0.176 0.416-0.206-0.647-0.113-1.909 0.056-1.552 1.89 0.264 1.45 2.069 1.383 3.202 1.147 1.035-0.22 2.845-0.927 2.721 0.686 0.012 0.236-0.043 0.47-0.16 0.676s-0.289 0.375-0.499 0.487c-0.209 0.112-0.447 0.164-0.684 0.149s-0.466-0.097-0.659-0.236c-1.102-0.599-2.204-1.24-3.254-0.102 0.941 0 2.204 0.277 2.55 1.25 0.070 0.159 0.099 0.334 0.082 0.507s-0.077 0.339-0.177 0.483c-0.099 0.144-0.234 0.26-0.391 0.337s-0.332 0.115-0.507 0.107c-0.698 0.036-1.128-0.692-0.89-1.624-0.29 0.268-0.469 0.634-0.503 1.025s0.079 0.782 0.317 1.096c0.864 1.025 5.090-0.143 4.278 1.158-0.228 0.374-0.869 0.328-1.221 0.466-1.21 0.471-0.916 1.424 0 2.111-0.041-2.049 2.705-0.881 3.709-0.307 1.94 1.112-1.433 2.111-2.457 0.451 0.802 2.761 3.621 2.587 5.69 1.388 0.864-0.583 1.925-0.806 2.954-0.62 0.859 0.179 2.069 0.886 0.833 1.537-1.040 0.417-2.203 0.417-3.243 0 0.812 1.122 1.852 2.008 3.305 2.080 1.681 0.087 3.166-0.978 4.743-1.368 0.517-0.133 3.481-0.471 2.359 0.733-0.755 0.814-2.586 0.604-3.564 0.41 0.719 0.612 1.619 0.977 2.565 1.038s1.887-0.182 2.68-0.695c0.776-0.456 1.598-1.158 2.586-1.076s0.285 0.758-0.341 1.296c1.030-0.001 2.047-0.237 2.969-0.692 0.713-0.493 1.278-1.167 1.635-1.952 0.71-1.562 1.199-3.213 1.454-4.908 2.069-0.174 4.216-0.031 6.3-0.031 0.292 0 0.58-0.071 0.838-0.207s0.478-0.332 0.642-0.572v-0.031c0.035 0.056 0.075 0.109 0.119 0.159 0.167 0.203 0.377 0.367 0.616 0.48s0.5 0.171 0.765 0.171h13.273c0.411-0.001 0.809-0.142 1.128-0.4s0.538-0.616 0.621-1.014l1.412-7.039h2.209l-2.395 11.782c-0.053 0.257-0.047 0.522 0.016 0.776s0.183 0.492 0.35 0.695c0.167 0.203 0.378 0.366 0.617 0.479s0.5 0.171 0.765 0.171h6.285c0.41-0.001 0.808-0.141 1.126-0.398s0.538-0.614 0.622-1.011l0.864-4.15c0.785 0.285 1.616 0.426 2.452 0.415 1.954 0.033 3.855-0.625 5.364-1.854 0.035 0.338 0.17 0.659 0.388 0.922 0.168 0.202 0.378 0.366 0.617 0.478s0.5 0.171 0.764 0.172h19.020c0.411-0.001 0.809-0.142 1.128-0.4s0.538-0.616 0.621-1.014l2.669-12.935c0.054-0.257 0.049-0.522-0.015-0.776s-0.184-0.492-0.352-0.694z"></path>
<path fill="#f5f5f5" style="fill: var(--color2, #f5f5f5)" d="M50.869 9.247l-2.669 12.935h-5.737l1.247-6.055h-0.124l-4.117 6.055h-6.212l2.669-12.935h5.737l-1.247 6.040h0.124l4.169-6.040h6.161z"></path>
<path fill="#f5f5f5" style="fill: var(--color2, #f5f5f5)" d="M62.999 9.247l-0.967 4.482h-4.593l-1.702 8.453h-6.29l2.669-12.935h10.883z"></path>
<path fill="#f5f5f5" style="fill: var(--color2, #f5f5f5)" d="M79.076 13.832c0 2.568-0.69 4.646-2.069 6.234-0.624 0.759-1.414 1.368-2.31 1.781s-1.875 0.621-2.863 0.606c-0.639 0.012-1.274-0.095-1.873-0.318-0.764-0.291-1.382-0.869-1.717-1.609l-1.516 7.080h-6.269l3.797-18.386h5.835l-0.45 2.203h0.103c0.527-0.795 1.252-1.442 2.105-1.88 0.841-0.418 1.77-0.631 2.71-0.62 0.939-0.034 1.867 0.207 2.669 0.692 1.231 0.806 1.847 2.213 1.847 4.221v-0.005zM71.115 13.13c-0.341 0.002-0.672 0.119-0.936 0.333-0.347 0.298-0.616 0.674-0.786 1.096-0.367 0.825-0.553 1.717-0.548 2.618-0.017 0.21 0.009 0.421 0.078 0.62s0.178 0.382 0.32 0.538c0.101 0.092 0.219 0.164 0.348 0.21s0.266 0.067 0.403 0.061c0.314 0.008 0.621-0.088 0.874-0.271 0.39-0.302 0.692-0.702 0.874-1.158 0.164-0.418 0.294-0.847 0.388-1.286 0.099-0.437 0.152-0.884 0.16-1.332 0.025-0.222-0.003-0.447-0.081-0.657s-0.204-0.399-0.369-0.552z"></path>
<path fill="#f5f5f5" style="fill: var(--color2, #f5f5f5)" d="M93.87 14.856c-0.848-0.958-2.271-1.245-4.268-1.245-0.15 0-0.517 0-1.174 0.062s-1.086 0.061-1.371 0.061l0.848-4.493h-6.29l-2.669 12.94h8.24c2.431 0 5.012-0.64 6.207-1.926 0.861-0.881 1.337-2.063 1.324-3.289 0.011-0.39-0.058-0.779-0.204-1.142s-0.365-0.693-0.644-0.968zM87.817 18.611c-0.433 0.36-0.988 0.543-1.552 0.512h-0.517l0.6-2.915h0.517c0.324-0.015 0.648 0.043 0.947 0.169 0.19 0.092 0.347 0.24 0.45 0.423s0.146 0.393 0.125 0.602c0.002 0.232-0.047 0.462-0.144 0.673s-0.238 0.399-0.415 0.551z"></path>
<path fill="#f5f5f5" style="fill: var(--color2, #f5f5f5)" d="M94.351 9.247l-0.812 3.924c0.732 0.218 1.39 0.633 1.898 1.199 0.6 0.693 0.919 1.582 0.895 2.495 0.019 1.329-0.482 2.614-1.397 3.586-0.786 0.851-1.805 1.458-2.933 1.747h5.964l2.669-12.935-6.285-0.015z"></path>
<path fill="#f5f5f5" style="fill: var(--color2, #f5f5f5)" d="M18.668 11.952c-0.218-0.952-0.699-1.825-1.391-2.52-1.231-1.347-2.167-1.778-1.686-2.049 0.662-0.392 1.366-0.708 2.1-0.943 1.185-0.405 1.474-0.435 1.914 0.169s1.852 2.695 1.671 3.929c-0.181 1.235-0.75 1.066-0.75 1.066l-1.857 0.348z"></path>
<path fill="#f5f5f5" style="fill: var(--color2, #f5f5f5)" d="M22.113 11.583c0.523-0.828 0.805-1.784 0.812-2.761 0.093-1.813-0.264-2.771 0.274-2.628 0.744 0.187 1.464 0.457 2.147 0.804 1.123 0.538 1.355 0.722 1.231 1.46s-0.616 3.202-1.619 3.945c-1.004 0.743-1.298 0.23-1.298 0.23l-1.547-1.050z"></path>
<path fill="#f5f5f5" style="fill: var(--color2, #f5f5f5)" d="M24.829 13.729c0.961-0.216 1.842-0.694 2.545-1.378 1.36-1.219 1.795-2.146 2.069-1.67 0.397 0.657 0.718 1.357 0.957 2.085 0.409 1.168 0.44 1.46-0.176 1.895s-2.721 1.834-3.962 1.655c-1.241-0.179-1.076-0.748-1.076-0.748l-0.357-1.839z"></path>
<path fill="#f5f5f5" style="fill: var(--color2, #f5f5f5)" d="M25.186 17.141c0.836 0.514 1.799 0.787 2.783 0.789 1.831 0.092 2.804-0.261 2.659 0.271-0.189 0.742-0.462 1.46-0.812 2.141-0.548 1.112-0.729 1.342-1.474 1.219s-3.233-0.589-3.988-1.583c-0.755-0.994-0.228-1.281-0.228-1.281l1.060-1.557z"></path>
<path fill="#f5f5f5" style="fill: var(--color2, #f5f5f5)" d="M23.013 19.815c0.218 0.952 0.7 1.825 1.391 2.52 1.231 1.347 2.167 1.783 1.686 2.049-0.662 0.392-1.366 0.708-2.1 0.943-1.185 0.41-1.479 0.441-1.914-0.169s-1.852-2.695-1.676-3.924c0.176-1.23 0.755-1.071 0.755-1.071l1.857-0.348z"></path>
<path fill="#f5f5f5" style="fill: var(--color2, #f5f5f5)" d="M19.568 20.189c-0.526 0.826-0.807 1.78-0.812 2.756-0.093 1.813 0.264 2.777-0.274 2.633-0.75-0.186-1.476-0.457-2.162-0.809-1.128-0.538-1.355-0.722-1.231-1.46s0.616-3.197 1.619-3.945 1.298-0.225 1.298-0.225l1.562 1.050z"></path>
<path fill="#f5f5f5" style="fill: var(--color2, #f5f5f5)" d="M16.868 18.037c-0.961 0.216-1.842 0.694-2.545 1.378-1.36 1.219-1.795 2.147-2.069 1.67-0.399-0.656-0.72-1.356-0.957-2.085-0.409-1.168-0.44-1.46 0.171-1.895s2.726-1.829 3.967-1.655 1.076 0.748 1.076 0.748l0.357 1.839z"></path>
<path fill="#f5f5f5" style="fill: var(--color2, #f5f5f5)" d="M16.496 14.626c-0.835-0.516-1.799-0.791-2.783-0.794-1.836-0.087-2.804 0.261-2.659-0.266 0.187-0.742 0.46-1.461 0.812-2.141 0.517-1.117 0.729-1.342 1.474-1.219s3.212 0.594 3.988 1.578c0.776 0.984 0.228 1.281 0.228 1.281l-1.060 1.562z"></path>
<path fill="#0d0802" style="fill: var(--color1, #0d0802)" d="M18.172 9.954c-0.495-0.65-1.036-1.264-1.619-1.839-0.517-0.441-0.605-0.512-0.46-0.589s0.621 0.348 1.107 0.912c0.486 0.563 1.148 1.445 1.148 1.445l-0.176 0.072z"></path>
<path fill="#0d0802" style="fill: var(--color1, #0d0802)" d="M23.189 9.82c0.114-0.806 0.171-1.619 0.171-2.433-0.083-0.686-0.083-0.774 0.093-0.727s0.191 0.681 0.134 1.424c-0.057 0.743-0.217 1.824-0.217 1.824l-0.181-0.087z"></path>
<path fill="#0d0802" style="fill: var(--color1, #0d0802)" d="M26.831 13.242c0.657-0.49 1.278-1.025 1.857-1.603 0.445-0.512 0.517-0.594 0.595-0.456s-0.352 0.599-0.921 1.112c-0.569 0.512-1.464 1.127-1.464 1.127l-0.067-0.179z"></path>
<path fill="#0d0802" style="fill: var(--color1, #0d0802)" d="M26.96 18.212c0.814 0.113 1.635 0.17 2.457 0.169 0.693-0.067 0.781-0.072 0.745 0.092s-0.688 0.19-1.433 0.133c-0.745-0.056-1.831-0.22-1.831-0.22l0.062-0.174z"></path>
<path fill="#0d0802" style="fill: var(--color1, #0d0802)" d="M23.51 21.818c0.494 0.65 1.033 1.264 1.614 1.839 0.517 0.441 0.6 0.512 0.46 0.589s-0.621-0.353-1.107-0.912c-0.486-0.558-1.148-1.445-1.148-1.445l0.181-0.072z"></path>
<path fill="#0d0802" style="fill: var(--color1, #0d0802)" d="M18.492 21.946c-0.114 0.806-0.171 1.619-0.171 2.433 0.062 0.686 0.067 0.774-0.093 0.738s-0.191-0.681-0.134-1.419c0.057-0.738 0.217-1.829 0.217-1.829l0.181 0.077z"></path>
<path fill="#0d0802" style="fill: var(--color1, #0d0802)" d="M14.851 18.524c-0.656 0.491-1.276 1.027-1.857 1.603-0.445 0.512-0.517 0.594-0.595 0.456s0.352-0.605 0.921-1.117c0.569-0.512 1.459-1.142 1.459-1.142l0.072 0.2z"></path>
<path fill="#0d0802" style="fill: var(--color1, #0d0802)" d="M14.716 13.56c-0.812-0.116-1.631-0.172-2.452-0.169-0.693 0.062-0.781 0.067-0.75-0.097s0.693-0.184 1.438-0.128c0.745 0.056 1.841 0.215 1.841 0.215l-0.078 0.179z"></path>
<path fill="#f5f5f5" style="fill: var(--color2, #f5f5f5)" d="M24.829 22.028c-1.228 0.782-2.664 1.186-4.124 1.16s-2.88-0.48-4.079-1.305c-1.199-0.825-2.125-1.984-2.659-3.33s-0.653-2.819-0.341-4.232c0.311-1.413 1.039-2.703 2.091-3.706s2.381-1.675 3.818-1.93 2.919-0.082 4.258 0.497c1.338 0.579 2.473 1.538 3.261 2.756 1.055 1.631 1.413 3.61 0.996 5.502s-1.575 3.543-3.22 4.59z"></path>
<path fill="#1d1d1b" style="fill: var(--color3, #1d1d1b)" d="M24.539 21.613c-1.144 0.728-2.48 1.104-3.84 1.079s-2.681-0.447-3.798-1.215c-1.117-0.768-1.978-1.847-2.476-3.101s-0.609-2.625-0.319-3.94c0.29-1.316 0.966-2.517 1.945-3.452s2.216-1.561 3.554-1.799c1.338-0.239 2.718-0.079 3.964 0.459s2.304 1.43 3.038 2.563c0.983 1.519 1.318 3.363 0.93 5.127s-1.466 3.302-2.999 4.279z"></path>
<path fill="#f5f5f5" style="fill: var(--color2, #f5f5f5)" d="M32.78 10.758l-0.812 3.642c0.118 0.849 0.137 1.708 0.057 2.561l1.448-6.511c0.036-0.169 0.058-0.34 0.067-0.512-0.173 0.32-0.426 0.592-0.734 0.789l-0.026 0.031z"></path>
<path fill="#f5f5f5" style="fill: var(--color2, #f5f5f5)" d="M29.521 25.409l0.083 0.133c0.164 0.255 0.271 0.541 0.316 0.84 0-0.077 0.041-0.154 0.057-0.23l1.448-6.516c-0.287 0.806-0.667 1.576-1.133 2.295l-0.771 3.478z"></path>
<path fill="#f5f5f5" style="fill: var(--color2, #f5f5f5)" d="M25.926 27.663l-3.512-0.768c-0.857 0.119-1.725 0.138-2.586 0.056l6.585 1.434c0.077 0.019 0.154 0.032 0.233 0.041-0.255-0.163-0.472-0.378-0.636-0.63l-0.083-0.133z"></path>
<path fill="#f5f5f5" style="fill: var(--color2, #f5f5f5)" d="M30.271 7.321l0.248-0.149c0.199-0.128 0.42-0.22 0.652-0.271l-6.554-1.429c0.813 0.285 1.591 0.662 2.317 1.122l3.336 0.727z"></path>
<path fill="#f5f5f5" style="fill: var(--color2, #f5f5f5)" d="M12.218 6.445l-0.083-0.133c-0.166-0.254-0.274-0.54-0.316-0.84l-0.062 0.231-1.448 6.516c0.29-0.803 0.67-1.571 1.133-2.29l0.776-3.484z"></path>
<path fill="#f5f5f5" style="fill: var(--color2, #f5f5f5)" d="M9.037 20.763l0.735-3.304c-0.12-0.849-0.14-1.708-0.057-2.561l-1.438 6.491c0.145-0.185 0.32-0.344 0.517-0.471l0.243-0.154z"></path>
<path fill="#f5f5f5" style="fill: var(--color2, #f5f5f5)" d="M15.808 4.17l3.517 0.768c0.857-0.119 1.725-0.138 2.586-0.056l-6.59-1.434c-0.077-0.019-0.154-0.032-0.233-0.041 0.255 0.163 0.472 0.378 0.636 0.63l0.083 0.133z"></path>
<path fill="#f5f5f5" style="fill: var(--color2, #f5f5f5)" d="M11.116 24.456c-0.309 0.199-0.666 0.312-1.034 0.328 0.156 0.063 0.317 0.112 0.481 0.149l6.559 1.45c-0.812-0.284-1.588-0.661-2.312-1.122l-3.693-0.804z"></path>
<path fill="#f5f5f5" style="fill: var(--color2, #f5f5f5)" d="M29.919 26.383c-0.044-0.299-0.152-0.585-0.316-0.84l-0.083-0.133-0.931-1.439c1.278-1.202 2.249-2.688 2.835-4.334 0.31-0.869 0.512-1.772 0.6-2.689 0.168-1.779-0.102-3.572-0.786-5.225l1.552-0.978h0.026c0.308-0.197 0.561-0.469 0.734-0.789 0.191-0.359 0.274-0.764 0.238-1.169s-0.188-0.789-0.439-1.11c-0.251-0.321-0.59-0.563-0.976-0.697s-0.804-0.156-1.202-0.062c-0.231 0.047-0.452 0.133-0.652 0.256l-0.238 0.149-1.381 0.876c-1.196-1.221-2.662-2.151-4.283-2.715-0.877-0.308-1.789-0.506-2.716-0.589-0.861-0.082-1.73-0.063-2.586 0.056-0.886 0.121-1.754 0.346-2.586 0.671l-0.931-1.439-0.083-0.133c-0.262-0.406-0.657-0.711-1.118-0.864s-0.962-0.145-1.418 0.022c-0.456 0.168-0.841 0.485-1.090 0.899s-0.347 0.9-0.279 1.377c0.041 0.3 0.149 0.587 0.316 0.84l0.083 0.133 0.931 1.439c-0.649 0.614-1.222 1.302-1.707 2.049-0.463 0.719-0.843 1.487-1.133 2.29-0.309 0.869-0.509 1.772-0.595 2.69-0.083 0.853-0.064 1.713 0.057 2.561 0.116 0.834 0.328 1.652 0.631 2.439l-1.366 0.866-0.238 0.154c-0.399 0.249-0.704 0.623-0.865 1.062s-0.17 0.919-0.026 1.364c0.145 0.445 0.435 0.83 0.824 1.093s0.857 0.391 1.328 0.363c0.368-0.016 0.725-0.129 1.034-0.328l1.552-0.978c1.228 1.306 2.756 2.3 4.454 2.898s3.516 0.783 5.302 0.539c0.887-0.118 1.755-0.343 2.586-0.671l0.947 1.378 0.088 0.133c0.262 0.406 0.657 0.711 1.118 0.864s0.962 0.145 1.418-0.022 0.841-0.485 1.090-0.899c0.249-0.414 0.347-0.9 0.279-1.377v0.020zM24.71 25.799c-1.344 0.516-2.781 0.753-4.221 0.697-2.803-0.095-5.455-1.281-7.381-3.299-0.463-0.485-0.878-1.011-1.242-1.573-0.414-0.634-0.76-1.309-1.035-2.013-0.85-2.266-0.89-4.752-0.115-7.044s2.32-4.252 4.377-5.553c1.826-1.155 3.964-1.734 6.13-1.66 1.293 0.051 2.566 0.328 3.761 0.82 2.010 0.83 3.715 2.252 4.883 4.073 0.364 0.56 0.672 1.154 0.921 1.772 0.554 1.361 0.814 2.821 0.766 4.288-0.049 1.279-0.329 2.539-0.828 3.719-0.557 1.317-1.379 2.507-2.416 3.499-0.513 0.495-1.076 0.936-1.681 1.316-0.602 0.383-1.241 0.704-1.909 0.958z"></path>
<path fill="#0d0802" style="fill: var(--color1, #0d0802)" d="M32.428 10.246c-0.258 0.167-0.56 0.255-0.869 0.251s-0.609-0.098-0.862-0.271c-0.254-0.173-0.45-0.418-0.563-0.702s-0.138-0.595-0.072-0.893 0.22-0.57 0.443-0.781c0.223-0.211 0.504-0.352 0.808-0.404s0.616-0.013 0.898 0.111 0.519 0.329 0.683 0.588c0.215 0.341 0.287 0.752 0.2 1.144s-0.326 0.736-0.666 0.956z"></path>
<path fill="#0d0802" style="fill: var(--color1, #0d0802)" d="M9.171 21.378c0.258-0.167 0.56-0.255 0.869-0.251s0.608 0.098 0.862 0.271c0.254 0.173 0.45 0.418 0.563 0.702s0.138 0.595 0.072 0.893c-0.066 0.298-0.22 0.57-0.443 0.781s-0.504 0.351-0.808 0.404-0.616 0.013-0.898-0.111c-0.281-0.125-0.519-0.329-0.683-0.588-0.215-0.341-0.287-0.752-0.2-1.144s0.326-0.736 0.665-0.956z"></path>
<path fill="#0d0802" style="fill: var(--color1, #0d0802)" d="M26.479 27.443c-0.169-0.255-0.257-0.555-0.254-0.86s0.099-0.603 0.274-0.854c0.175-0.251 0.422-0.446 0.708-0.558s0.601-0.137 0.902-0.071c0.301 0.066 0.576 0.218 0.789 0.439s0.355 0.499 0.408 0.8c0.053 0.301 0.013 0.61-0.112 0.889s-0.333 0.514-0.594 0.676c-0.344 0.213-0.759 0.284-1.155 0.198s-0.743-0.323-0.965-0.659z"></path>
<path fill="#0d0802" style="fill: var(--color1, #0d0802)" d="M15.254 4.411c0.169 0.255 0.258 0.555 0.255 0.861s-0.098 0.603-0.274 0.855c-0.175 0.252-0.422 0.446-0.709 0.558s-0.601 0.137-0.903 0.071-0.576-0.219-0.789-0.44c-0.213-0.221-0.355-0.5-0.407-0.801s-0.012-0.611 0.114-0.89c0.127-0.279 0.334-0.514 0.596-0.675 0.344-0.212 0.757-0.282 1.152-0.196s0.741 0.322 0.963 0.657z"></path>
<path fill="#f5f5f5" style="fill: var(--color2, #f5f5f5)" d="M32.226 9.949c-0.192 0.118-0.414 0.177-0.64 0.17s-0.444-0.080-0.628-0.21c-0.184-0.13-0.324-0.311-0.405-0.52s-0.096-0.437-0.046-0.655c0.050-0.218 0.165-0.416 0.329-0.57s0.37-0.256 0.592-0.294 0.451-0.010 0.657 0.081c0.206 0.091 0.381 0.24 0.502 0.429 0.082 0.125 0.138 0.265 0.166 0.412s0.024 0.298-0.008 0.443c-0.032 0.146-0.093 0.284-0.18 0.406s-0.197 0.226-0.324 0.306z"></path>
<path fill="#0d0802" style="fill: var(--color1, #0d0802)" d="M32.133 9.641l0.062 0.051c0.053-0.041 0.1-0.090 0.14-0.143 0.041-0.056 0.076-0.116 0.103-0.179l-0.072-0.041c-0.13-0.096-0.215-0.239-0.239-0.397s0.018-0.32 0.114-0.448l0.057-0.067c-0.044-0.052-0.094-0.099-0.15-0.138s-0.114-0.073-0.176-0.102c-0.012 0.026-0.028 0.050-0.047 0.072-0.097 0.128-0.241 0.213-0.401 0.236s-0.323-0.018-0.452-0.113l-0.062-0.051c-0.053 0.041-0.1 0.090-0.14 0.143-0.041 0.056-0.076 0.116-0.103 0.179l0.072 0.041c0.13 0.096 0.215 0.239 0.239 0.397s-0.018 0.32-0.114 0.448l-0.057 0.067c0.038 0.050 0.082 0.097 0.129 0.138 0.056 0.039 0.114 0.073 0.176 0.102l0.047-0.072c0.097-0.128 0.241-0.213 0.401-0.236s0.323 0.018 0.452 0.113z"></path>
<path fill="#f5f5f5" style="fill: var(--color2, #f5f5f5)" d="M14.582 6.183c-0.191 0.121-0.414 0.184-0.641 0.179s-0.448-0.075-0.634-0.204c-0.186-0.128-0.33-0.309-0.413-0.518s-0.101-0.438-0.053-0.658 0.162-0.42 0.325-0.576c0.163-0.156 0.37-0.261 0.593-0.301s0.454-0.013 0.662 0.077c0.208 0.090 0.385 0.239 0.508 0.428 0.162 0.253 0.216 0.559 0.151 0.852s-0.244 0.548-0.498 0.711z"></path>
<path fill="#0d0802" style="fill: var(--color1, #0d0802)" d="M14.484 5.876c0.025 0.016 0.047 0.035 0.067 0.056 0.050-0.046 0.097-0.095 0.14-0.149 0.039-0.057 0.074-0.117 0.103-0.179l-0.072-0.041c-0.13-0.096-0.215-0.239-0.239-0.397s0.018-0.32 0.114-0.448c0.016-0.024 0.035-0.047 0.057-0.067-0.090-0.104-0.203-0.187-0.331-0.241-0.011 0.026-0.025 0.050-0.041 0.072-0.096 0.123-0.235 0.205-0.39 0.229s-0.313-0.012-0.442-0.101l-0.067-0.051c-0.052 0.043-0.099 0.091-0.14 0.143-0.041 0.056-0.076 0.116-0.103 0.179l0.072 0.041c0.13 0.096 0.215 0.239 0.239 0.397s-0.018 0.32-0.115 0.448c-0.016 0.023-0.033 0.045-0.052 0.067 0.042 0.052 0.091 0.099 0.145 0.138 0.057 0.039 0.118 0.073 0.181 0.102 0.011-0.026 0.025-0.050 0.041-0.072 0.095-0.123 0.235-0.205 0.39-0.229s0.313 0.012 0.442 0.101z"></path>
<path fill="#f5f5f5" style="fill: var(--color2, #f5f5f5)" d="M10.594 23.652c-0.19 0.121-0.413 0.183-0.639 0.179s-0.446-0.075-0.632-0.203c-0.186-0.128-0.329-0.308-0.411-0.516s-0.101-0.437-0.052-0.656 0.162-0.418 0.325-0.574c0.163-0.155 0.369-0.259 0.592-0.298s0.452-0.012 0.659 0.078c0.207 0.090 0.383 0.239 0.504 0.428 0.162 0.253 0.216 0.559 0.151 0.852s-0.244 0.548-0.498 0.711z"></path>
<path fill="#0d0802" style="fill: var(--color1, #0d0802)" d="M10.495 23.345c0.025 0.016 0.047 0.035 0.067 0.056 0.052-0.044 0.099-0.094 0.14-0.149 0.038-0.056 0.073-0.114 0.103-0.174l-0.072-0.026c-0.13-0.096-0.215-0.239-0.239-0.397s0.018-0.32 0.114-0.448c0.016-0.024 0.035-0.047 0.057-0.067-0.046-0.050-0.096-0.096-0.15-0.138-0.057-0.039-0.118-0.073-0.181-0.102-0.011 0.026-0.025 0.050-0.041 0.072-0.047 0.064-0.107 0.118-0.176 0.159s-0.145 0.068-0.225 0.079c-0.079 0.011-0.16 0.007-0.238-0.013s-0.151-0.055-0.215-0.103l-0.067-0.051c-0.050 0.044-0.097 0.092-0.14 0.143-0.039 0.057-0.074 0.117-0.103 0.179l0.072 0.041c0.121 0.098 0.2 0.237 0.22 0.391s-0.020 0.309-0.112 0.434c-0.016 0.023-0.033 0.045-0.052 0.067 0.043 0.051 0.092 0.098 0.145 0.138 0.056 0.041 0.117 0.075 0.181 0.102 0.011-0.026 0.025-0.050 0.041-0.072 0.097-0.128 0.241-0.213 0.401-0.236s0.323 0.018 0.452 0.113z"></path>
<path fill="#f5f5f5" style="fill: var(--color2, #f5f5f5)" d="M28.388 27.581c-0.191 0.119-0.413 0.18-0.639 0.175s-0.445-0.077-0.63-0.206c-0.185-0.129-0.327-0.309-0.408-0.517s-0.099-0.436-0.050-0.655c0.049-0.218 0.162-0.417 0.325-0.572s0.369-0.258 0.591-0.297c0.222-0.039 0.451-0.012 0.658 0.078s0.382 0.238 0.504 0.426c0.081 0.126 0.137 0.266 0.163 0.413s0.023 0.298-0.010 0.443c-0.033 0.146-0.094 0.284-0.181 0.406s-0.197 0.226-0.324 0.306z"></path>
<path fill="#0d0802" style="fill: var(--color1, #0d0802)" d="M28.295 27.269l0.062 0.056c0.053-0.044 0.102-0.094 0.145-0.148 0.040-0.054 0.073-0.113 0.098-0.174-0.024-0.014-0.046-0.029-0.067-0.046-0.127-0.094-0.212-0.233-0.236-0.389s0.014-0.314 0.107-0.441l0.057-0.061c-0.044-0.052-0.094-0.099-0.15-0.138-0.054-0.041-0.113-0.075-0.176-0.102-0.012 0.026-0.028 0.050-0.047 0.072-0.097 0.128-0.241 0.213-0.401 0.236s-0.323-0.018-0.452-0.113l-0.062-0.056c-0.053 0.043-0.1 0.093-0.14 0.149-0.041 0.054-0.076 0.112-0.103 0.174l0.072 0.046c0.122 0.095 0.203 0.233 0.226 0.386s-0.014 0.308-0.102 0.434l-0.057 0.062c0.045 0.051 0.095 0.098 0.15 0.138 0.053 0.043 0.112 0.077 0.176 0.102l0.047-0.072c0.098-0.127 0.242-0.211 0.401-0.234s0.322 0.017 0.452 0.111z"></path>
<path fill="#f5f5f5" style="fill: var(--color2, #f5f5f5)" d="M16.175 11.562l2.198 0.056c1.071 0.031 1.764 0.225 2.069 0.594 0.194 0.247 0.31 0.544 0.336 0.855 0.022 0.312 0.022 0.625 0 0.938v0.722c0.008 0.346-0.038 0.692-0.134 1.025-0.222 0.599-0.838 0.886-1.852 0.861h-0.59l-0.088 3.35-2.183-0.056 0.243-8.345zM18.317 13.038l-0.057 2.105h0.166c0.089 0.014 0.181 0.003 0.264-0.034s0.153-0.096 0.202-0.171c0.068-0.162 0.1-0.337 0.093-0.512v-0.681c0.033-0.192-0.012-0.389-0.124-0.548-0.162-0.116-0.36-0.169-0.559-0.149z"></path>
<path fill="#f5f5f5" style="fill: var(--color2, #f5f5f5)" d="M26.334 15.445l-2.183-0.077 0.041-1.445c0-0.359 0-0.553 0-0.594-0.041-0.236-0.16-0.354-0.362-0.359s-0.357 0.113-0.414 0.369c0 0.051 0 0.266-0.031 0.63l-0.109 3.883c0 0.338 0 0.543 0 0.615 0.041 0.246 0.166 0.369 0.372 0.374s0.341-0.128 0.393-0.4c0-0.056 0-0.277 0.031-0.645v-1.025l2.183 0.056v0.323c0.005 0.516-0.045 1.031-0.15 1.537-0.067 0.256-0.185 0.496-0.348 0.705s-0.366 0.384-0.599 0.514c-0.475 0.256-1.012 0.375-1.552 0.343-1.319-0.031-2.105-0.512-2.374-1.363-0.143-0.599-0.193-1.215-0.15-1.829l0.124-2.433c0.002-0.385 0.025-0.77 0.067-1.153 0.046-0.381 0.192-0.743 0.424-1.050 0.259-0.303 0.59-0.537 0.962-0.684s0.776-0.2 1.174-0.156c0.491 0.006 0.974 0.118 1.417 0.328 0.224 0.094 0.426 0.234 0.592 0.41s0.292 0.386 0.37 0.614c0.144 0.562 0.197 1.143 0.155 1.721l-0.036 0.789z"></path>
</symbol>
<symbol id="icon-card" viewBox="0 0 43 32">
<path fill="#f5f5f5" style="fill: var(--color2, #f5f5f5)" d="M38.667 0h-34.667c-2.2 0-4 1.8-4 4v24c0 2.2 1.8 4 4 4h34.667c2.2 0 4-1.8 4-4v-24c0-2.2-1.8-4-4-4zM4 2.667h34.667c0.723 0 1.333 0.611 1.333 1.333v4h-37.333v-4c0-0.723 0.611-1.333 1.333-1.333zM38.667 29.333h-34.667c-0.723 0-1.333-0.611-1.333-1.333v-12h37.333v12c0 0.723-0.611 1.333-1.333 1.333zM5.333 21.333h2.667v5.333h-2.667v-5.333zM10.667 21.333h2.667v5.333h-2.667v-5.333zM16 21.333h2.667v5.333h-2.667v-5.333z"></path>
</symbol>
<symbol id="icon-display" viewBox="0 0 32 32">
<path fill="#f5f5f5" style="fill: var(--color2, #f5f5f5)" d="M0 2v20h32v-20h-32zM30 20h-28v-16h28v16zM21 24h-10l-1 4-2 2h16l-2-2-1-4z"></path>
</symbol>
<symbol id="icon-location" viewBox="0 0 32 32">
<path fill="#f5f5f5" style="fill: var(--color2, #f5f5f5)" d="M16 0c-5.523 0-10 4.477-10 10 0 10 10 22 10 22s10-12 10-22c0-5.523-4.477-10-10-10zM16 16c-3.314 0-6-2.686-6-6s2.686-6 6-6c3.314 0 6 2.686 6 6s-2.686 6-6 6z"></path>
</symbol>
<symbol id="icon-users" viewBox="0 0 34 32">
<path fill="#f5f5f5" style="fill: var(--color2, #f5f5f5)" d="M21.513 24.082v-1.649c1.975-1.241 3.585-4.337 3.585-7.432 0-4.971 0-9-5.378-9s-5.378 4.029-5.378 9c0 3.096 1.611 6.191 3.585 7.432v1.649c-6.081 0.555-10.756 3.888-10.756 7.918h25.098c0-4.030-4.676-7.364-10.756-7.918z"></path>
<path fill="#f5f5f5" style="fill: var(--color2, #f5f5f5)" d="M9.165 24.854c1.549-1.13 3.475-1.989 5.596-2.513-0.421-0.556-0.804-1.176-1.134-1.844-0.852-1.726-1.302-3.627-1.302-5.497 0-2.689 0-5.228 0.857-7.305 0.832-2.016 2.329-3.265 4.46-3.734-0.474-2.39-1.735-3.961-5.093-3.961-5.378 0-5.378 4.029-5.378 9 0 3.096 1.611 6.191 3.585 7.432v1.649c-6.081 0.555-10.756 3.888-10.756 7.918h7.815c0.407-0.403 0.857-0.787 1.35-1.146v0.001z"></path>
</symbol>
<symbol id="icon-PC-gamer" viewBox="0 0 156 32">
<path fill="#000" style="fill: var(--color4, #000)" d="M45.622 0v32h110.538v-32h-110.538z"></path>
<path fill="#474747" style="fill: var(--color5, #474747)" d="M0 0v32h45.622v-32h-45.622z"></path>
<path fill="#f5f5f5" style="fill: var(--color2, #f5f5f5)" d="M36.451 28.995c1.746-0.375 3.324-1.21 4.446-2.356 0.882-0.9 1.564-2.549 1.634-2.727l-4.637-2.643-0.588 0.901c-0.709 1.087-1.584 1.781-3.127 2.053-2.484 0.437-4.473-0.392-5.379-2.242-1.118-2.285-1.139-9.124-0.034-11.535 0.755-1.65 2.16-2.444 4.323-2.444 2.025 0 3.486 0.752 4.208 2.166l0.398 0.779 0.723-0.437c1.108-0.67 1.395-0.839 2.919-1.714l1.415-0.813-0.408-0.8c-0.575-1.126-2.010-2.599-3.182-3.267-2.911-1.656-8.287-1.802-11.571-0.312-1.21 0.549-2.651 1.825-3.42 3.030-1.352 2.117-2.040 6.057-1.858 10.634 0.174 4.351 0.873 6.856 2.456 8.794 1.806 2.212 4.308 3.182 8.224 3.189 1.235 0.002 2.792-0.113 3.46-0.257z"></path>
<path fill="#f5f5f5" style="fill: var(--color2, #f5f5f5)" d="M62.531 28.98c3.746-0.793 5.951-2.962 6.984-6.869 0.297-1.122 0.431-2.387 0.51-4.793l0.107-3.268h-12.169v4.276h6.454c0.030 1.244-0.273 2.477-0.729 3.627-1.029 2.071-3.551 2.944-6.22 2.152-1.602-0.476-2.58-1.756-3.010-3.941-0.343-1.744-0.163-8.076 0.262-9.2 0.783-2.072 2.155-2.958 4.585-2.961 2.204-0.003 3.477 0.945 4.388 2.265l0.321 0.465 4.882-2.765-0.474-0.934c-1.008-1.989-3.236-3.558-5.86-4.126-1.64-0.355-5.166-0.307-6.813 0.092-3.593 0.871-5.815 3.291-6.712 7.311-0.485 2.171-0.477 9.275 0.012 11.357 0.963 4.096 3.261 6.489 7.015 7.304 1.633 0.355 4.812 0.359 6.466 0.008z"></path>
<path fill="#f5f5f5" style="fill: var(--color2, #f5f5f5)" d="M2.928 2.927v26.049h5.466v-8.488h2.879c3.109-0.004 4.951-0.29 6.283-0.969 1.807-0.922 3.026-2.534 3.623-4.799 0.358-1.356 0.419-4.818 0.11-6.189-0.654-2.899-2.691-4.846-5.649-5.402-0.578-0.109-3.675-0.201-6.881-0.201h-5.832zM8.394 7.768h3.697c1.52 0 2.197 0.179 2.684 0.537 0.92 0.675 1.232 1.54 1.232 3.402s-0.312 2.727-1.232 3.402c-0.487 0.357-1.485 0.537-2.684 0.537h-3.697v-7.878z"></path>
<path fill="#f5f5f5" style="fill: var(--color2, #f5f5f5)" d="M76.653 2.927l-7.869 26.049h5.356l1.11-4h8.613l1.147 4h5.6l-7.991-26.049h-5.966zM79.684 10.616l0.018 0.024 2.672 9.232-5.655-0.018 2.965-9.238z"></path>
<path fill="#f5f5f5" style="fill: var(--color2, #f5f5f5)" d="M96.6 12.994l5.12 15.982h3.585l5.082-16.374 0.102 16.374h5.266v-26.049h-6.969l-5.088 16.459-5.020-16.459h-7.128l0.136 26.049h4.751l0.163-15.982z"></path>
<path fill="#f5f5f5" style="fill: var(--color2, #f5f5f5)" d="M133.518 24.001h-10.736v-5.854h10.151v-5.073h-10.151v-5.073h10.736v-5.073h-16.201l0.13 26.049h16.071v-4.976z"></path>
<path fill="#f5f5f5" style="fill: var(--color2, #f5f5f5)" d="M134.889 2.927l-0.018 26.049h5.38l0.11-8.695h3.319l3.671 8.695h5.686l-3.891-9.384c3.773-2.618 4.141-5.062 4.061-9.738-0.223-2.83-1.299-4.749-3.263-5.817-1.734-0.943-3.059-1.106-9.345-1.11h-5.71zM140.349 7.805h4.175c1.786 0 2.328 0.216 2.949 1.463 0.549 1.104 0.543 3.832-0.013 4.793-0.658 1.139-1.3 1.354-2.936 1.354h-4.175v-7.61z"></path>
<path fill="#000" style="fill: var(--color4, #000)" d="M153.038 4.294c0.471-0.47 0.486-0.658 0.084-1.059-0.6-0.6-1.45-0.248-1.45 0.601 0 0.391 0.429 0.827 0.829 0.843 0.081 0.003 0.323-0.17 0.536-0.384z"></path>
<path fill="#000" style="fill: var(--color4, #000)" d="M151.88 3.879c-0.017-0.422 0.494-0.828 0.863-0.686 0.163 0.062 0.284 0.314 0.273 0.558-0.018 0.334-0.045 0.359-0.113 0.101-0.049-0.189-0.184-0.285-0.3-0.214-0.125 0.077-0.155 0.039-0.072-0.095 0.077-0.124 0.044-0.225-0.074-0.225-0.116 0-0.292 0.198-0.389 0.439-0.119 0.297-0.179 0.336-0.188 0.121z"></path>
</symbol>
<symbol id="icon-steam-logo" viewBox="0 0 106 32">
<path fill="#f5f5f5" style="fill: var(--color2, #f5f5f5)" d="M15.963 0c-8.434 0-15.312 6.472-15.963 14.716l8.579 3.543c0.724-0.506 1.593-0.795 2.534-0.795 0.072 0 0.181 0 0.253 0l3.837-5.496c0-0.036 0-0.036 0-0.072 0-3.327 2.715-6.038 6.045-6.038s6.045 2.712 6.045 6.038c0 3.327-2.715 6.038-6.045 6.038-0.036 0-0.109 0-0.145 0l-5.43 3.869c0 0.072 0 0.145 0 0.217 0 2.495-2.027 4.52-4.525 4.52-2.208 0-4.018-1.555-4.452-3.652l-6.154-2.531c1.882 6.725 8.072 11.643 15.42 11.643 8.832 0 15.999-7.159 15.999-15.982 0-8.859-7.167-16.018-15.999-16.018z"></path>
<path fill="#f5f5f5" style="fill: var(--color2, #f5f5f5)" d="M10.027 24.262l-1.955-0.796c0.362 0.723 0.941 1.338 1.738 1.663 1.738 0.723 3.728-0.109 4.452-1.844 0.362-0.832 0.362-1.772 0-2.603s-1.014-1.482-1.846-1.844c-0.833-0.362-1.738-0.325-2.498-0.036l2.027 0.832c1.267 0.542 1.882 1.989 1.339 3.254-0.507 1.302-1.991 1.916-3.258 1.374z"></path>
<path fill="#f5f5f5" style="fill: var(--color2, #f5f5f5)" d="M25.266 11.86c0-2.206-1.81-4.014-4.018-4.014s-4.018 1.808-4.018 4.014 1.81 4.014 4.018 4.014c2.208 0 4.018-1.772 4.018-4.014zM18.207 11.86c0-1.663 1.339-3.001 3.041-3.001s3.041 1.338 3.041 3.001-1.339 3.001-3.041 3.001c-1.701 0-3.041-1.338-3.041-3.001z"></path>
<path fill="#f5f5f5" style="fill: var(--color2, #f5f5f5)" d="M49.084 10.956l-1.086 1.88c-0.833-0.578-1.955-0.94-2.932-0.94-1.122 0-1.81 0.47-1.81 1.302 0 1.012 1.231 1.229 3.041 1.88 1.955 0.687 3.077 1.519 3.077 3.29 0 2.459-1.918 3.833-4.706 3.833-1.339 0-3.004-0.362-4.235-1.121l0.796-2.097c1.014 0.542 2.244 0.868 3.33 0.868 1.484 0 2.172-0.542 2.172-1.338 0-0.904-1.050-1.193-2.787-1.772-1.955-0.651-3.294-1.519-3.294-3.507 0-2.242 1.81-3.544 4.38-3.544 1.774 0.072 3.221 0.651 4.054 1.266z"></path>
<path fill="#f5f5f5" style="fill: var(--color2, #f5f5f5)" d="M57.446 12.149v9.871h-2.498v-9.871h-3.692v-2.169h9.846v2.169h-3.656z"></path>
<path fill="#f5f5f5" style="fill: var(--color2, #f5f5f5)" d="M66.423 12.113v2.748h4.85v2.133h-4.85v2.857h5.611v2.169h-8.108v-12.041h8.108v2.133h-5.611z"></path>
<path fill="#f5f5f5" style="fill: var(--color2, #f5f5f5)" d="M77.68 19.67l-0.796 2.35h-2.642l4.525-12.041h2.534l4.633 12.041h-2.751l-0.832-2.35h-4.67zM80.033 12.836l-1.665 4.809h3.33l-1.665-4.809z"></path>
<path fill="#f5f5f5" style="fill: var(--color2, #f5f5f5)" d="M98.928 14.644l-3.294 7.015h-1.448l-3.222-6.979v7.34h-2.425v-12.041h2.389l4.054 8.678 3.909-8.678h2.461v12.041h-2.425v-7.376z"></path>
<path fill="#f5f5f5" style="fill: var(--color2, #f5f5f5)" d="M106.24 11.498c0 1.049-0.76 1.663-1.665 1.663s-1.665-0.651-1.665-1.663c0-1.049 0.796-1.663 1.665-1.663 0.869-0.036 1.665 0.615 1.665 1.663zM103.163 11.498c0 0.868 0.615 1.41 1.376 1.41s1.376-0.542 1.376-1.41-0.615-1.41-1.376-1.41c-0.76 0-1.376 0.542-1.376 1.41zM104.575 10.63c0.434 0 0.579 0.217 0.579 0.47 0 0.217-0.145 0.362-0.29 0.47l0.398 0.723h-0.326l-0.326-0.651h-0.362v0.651h-0.253v-1.663h0.579zM104.285 11.39h0.29c0.181 0 0.29-0.108 0.29-0.253s-0.072-0.253-0.29-0.253h-0.29v0.506z"></path>
</symbol>
<symbol id="icon-mania" viewBox="0 0 101 32">
<path fill="#f5f5f5" style="fill: var(--color2, #f5f5f5)" d="M79.857 0.89c-0.151 2.127 0.504 4.155 2.467 5.193 0.453 1.879 0.554 3.907 0.453 5.985-0.201 2.176-0.504 4.352-1.108 6.38l-0.705 0.692v3.66c-0.151 0.049-0.352 0-0.554 0.049-0.050-0.297 0-0.643-0.050-0.989-0.856-0.049-0.806 0.841-0.906 1.434-0.151 1.335-0.302 2.869 0 4.204-0.403-0.099-0.856-0.148-1.309-0.198l-0.151-1.78c-0.252-0.050-0.604 0.049-0.806 0.198-0.453 0.396-0.554 0.94-0.755 1.484h-0.302l0.151-2.522 0.906-0.742c0.101-0.94 0.151-1.929 0.101-2.918l-1.712 1.83-3.273 6.578-0.050 0.050c0.504-0.050 1.007-0.198 1.511-0.297 0.050-0.198 0.101-0.396 0.050-0.643 0.151-0.049 0.353-0.099 0.554-0.099-0.655 2.077-2.92 3.215-4.985 3.363-1.662-1.138-3.222-2.473-4.733-3.907-2.82-7.221-2.769-16.866-0.302-24.235 0-0.841 0.906-0.148 1.359-0.247 0 0.495-0.352 1.088-0.856 1.335-0.403 0.099-0.403 0.643-0.554 0.989-0.352 1.236-0.504 2.522-0.504 3.858 1.259-0.742 2.115-2.077 2.669-3.314l1.511 0.148 0.302 4.946c-0.151 0.198-0.604-0.099-0.554 0.297l-0.403 6.875c-0.151 2.967 0.050 5.935 0.252 8.804 0.906 0.148 1.813-0.148 2.618-0.544 4.028-2.325 4.632-6.776 6.042-10.535 1.057-3.512 1.158-7.419 1.41-11.227 0.403-1.583 0.604-3.363 2.215-4.155z"></path>
<path fill="#f5f5f5" style="fill: var(--color2, #f5f5f5)" d="M19.083 5.638h0.504l0.201 1.682c2.064 1.236 2.367 3.462 2.719 5.49 1.712-1.682 2.669-3.709 3.927-5.589 0.906-1.385 2.417-1.83 4.028-1.583l1.762 6.677c-0.957 2.819-1.36 5.886-1.46 9.002-0.201 0.148-0.453 0.396-0.655 0.396l-0.151-0.198-0.201-8.754v-0.049c-1.964 0.099-3.323 2.176-3.877 3.808-1.007 2.72-1.712 5.589-2.266 8.556l-3.374-0.989-0.654-6.875c-0.201-0.099-0.453-0.050-0.705-0.050-1.208 4.105-1.057 8.804-2.165 12.958-0.252 0.692-0.554 1.434-1.259 1.879-0.856-1.533-2.417-2.869-2.467-4.798-0.403-0.148-0.856-0.049-1.309-0.049 0.554-5.342 0.856-10.881 2.618-15.777 0.755 0.198 1.863 0.396 2.568-0.148 0.906-0.89 1.158-2.077 1.36-3.264 0.151-0.94 0.302-1.83 0.302-2.819l-0.403-0.049v-0.989h0.906l0.050 1.533z"></path>
<path fill="#f5f5f5" style="fill: var(--color2, #f5f5f5)" d="M60.422 7.716c0.504 0.346 1.057 0.544 1.611 0.791 0.101 4.204-0.201 8.26-1.108 12.068l-0.806 0.643-0.151 6.974-1.359-0.297c-0.302-1.879-0.453-3.858-0.906-5.737-0.957-1.138-2.266-1.583-3.575-1.83 0.050 0.643 0.302 1.286 0.352 1.978-1.007 0.198-2.014 0.495-2.618 1.434-0.755 1.682-0.554 3.759-0.755 5.638-0.151 0.742-0.403 1.533-1.158 1.929-0.403 0.099-0.856-0.049-1.158-0.297-0.806-0.742-1.208-1.632-1.46-2.621-0.604-0.148-1.208-0.346-1.813-0.495l-0.252-2.424c0.151 0.050 0.352 0.050 0.503 0.050v1.385l0.705-0.495c0.352-2.621 1.208-5.045 0.906-7.913 0.151-0.049 0.302-0.049 0.453-0.049 0.101 0.148 0 0.445 0.101 0.593 0.101 0.050 0.252 0 0.403 0.050 0.050-0.495 0.101-1.088-0.050-1.583-0.403-0.198-0.906-0.049-1.359 0 0.755-1.138 1.712-2.226 2.215-3.462l0.906-6.924c0.101-0.198 0.252-0.346 0.403-0.445 1.007 0.049 2.266-0.445 2.92 0.495 0.453 2.72-1.259 4.847-0.755 7.617l0.151 1.187c1.158 0.841 2.266 1.83 3.776 1.682 0.806-0.593 0.906-1.533 1.007-2.473 0.050-3.314-0.252-6.825 0.906-9.694 0.403-0.099 0.755-0.247 1.158-0.297l0.806 2.522z"></path>
<path fill="#f5f5f5" style="fill: var(--color2, #f5f5f5)" d="M100.149 5.045c-0.201 0-0.453-0.049-0.654 0.049l-0.151 2.077h-0.503c-2.014-0.544-3.323-2.671-4.834-4.155-0.906-0.89-1.863-1.731-3.172-1.682-1.309 0.495-2.014 1.929-2.568 3.066-0.201 0-0.403-0.049-0.604 0.049-1.41 0.247-1.762 1.731-2.216 2.77h-0.554l-0.252 2.522c0.201 0.148 0.604-0.049 0.806 0.148 0.403 1.731 1.964 3.264 3.575 4.105 0.201 0.099 0.503 0.297 0.403 0.544l-9.114 10.881 0.302 2.176c1.007 0.247 1.863 0.989 2.719 1.682 2.971-1.78 5.488-4.699 7.955-7.271 0.050-0.198-0.101-0.396-0.151-0.544l-2.82 3.067c-0.151-0.148-0.201-0.396-0.302-0.544l1.41-1.533c0.050-0.346-0.050-0.692-0.050-0.989 1.762-1.682 2.618-3.709 3.676-5.688l0.806-0.049 0.403-1.187 0.856 0.050c0.604 1.78 0.755 3.808 0.856 5.787l0.050 7.32c0.151 0 0.302 0.050 0.453-0.049 0.201-1.385 0.302-2.77 0.554-4.155 0.151 0.050 0.353-0.049 0.504 0.050 0.101 1.484 0.101 3.116-0.151 4.55l2.215-0.050 0.201-1.286 0.856-6.974c0.353-4.748 1.057-10.238-0.504-14.739zM93.502 14.244c-1.712-0.099-3.273-0.692-4.23-2.176-0.604-1.039-0.906-2.275-0.654-3.561l2.517 2.325c0.050-0.297 0.050-0.643 0-0.989-0.252-0.247-0.504-0.346-0.755-0.594v-1.088h0.101c1.007 1.781 2.266 3.462 3.776 5.045-0.101 0.396-0.353 0.841-0.755 1.039z"></path>
<path fill="#f5f5f5" style="fill: var(--color2, #f5f5f5)" d="M45.769 16.47c-0.504-2.72-1.007-5.441-1.057-8.408-0.302-2.819-1.057-5.49-2.014-8.062-1.259 0.099-2.618 0-3.877 0.049-0.201 1.434-0.453 2.77-0.806 4.155l-2.971 10.040-1.309 5.737c-0.201 0.099-0.453 0.198-0.655 0.198-0.050-1.484 0-3.017-0.050-4.501-0.352 0.396-0.755 0.742-1.108 1.138-0.654 4.797-0.654 10.090 0.151 14.838 1.46-0.495 3.072-0.544 4.683-0.643l0.151-2.968 0.554-6.974 0.352-1.583c0.503-1.236 1.813-2.028 3.071-2.127 0.050 0.049 0.101 0.099 0.050 0.148l1.511 7.765 1.813-1.088c-0.101-1.138-0.252-2.325-0.302-3.462h0.101c0.856 0.049 0.504 1.088 0.856 1.632 0.201-0.099 0.403-0.148 0.554-0.297l-0.050-5.342 0.352-0.247zM40.080 15.134c-0.503 0.346-1.057 0.445-1.611 0.643l0.504-3.561c0.453 0.297 0.957 0.692 1.108 1.187-0.050 0.594 0.151 1.187 0 1.731z"></path>
<path fill="#f5f5f5" style="fill: var(--color2, #f5f5f5)" d="M5.085 19.685c0.252-0.148 0.554-0.396 0.554-0.692-0.252-0.495-0.906-0.495-1.359-0.396l0.050 1.236c0.252 0.099 0.503-0.099 0.755-0.148zM5.337 27.202c-0.050 0-0.050-0.049-0.050-0.099l-0.101-0.247c-0.101-0.346 0.101-0.841-0.151-1.138-0.201-0.099-0.403 0.050-0.554 0.099 0 0.544 0.050 1.088-0.302 1.484-0.050-0.346-0.050-0.692-0.151-0.989l-0.050 0.050c-0.252 0.692-0.352 1.682 0.252 2.226 0.050-0.148 0-0.346 0.151-0.445 0.050 0.148 0.101 0.346 0.101 0.495 0.050 0.198 0.201 0.346 0.403 0.297 0.352-0.099 0.302-0.495 0.403-0.791 0.151 0.148 0.101 0.346 0.151 0.495 0.252-0.247 0.352-0.495 0.453-0.791 0.050-0.593 0.101-1.335-0.352-1.78 0.050 0.495-0.050 0.841-0.201 1.138zM9.617 3.017c-0.302-0.643-1.007-1.187-1.712-1.335l-6.042-0.049-0.554 0.198c-0.655 0.297-1.208 0.89-1.309 1.583v25.966c0.151 0.791 0.856 1.533 1.662 1.682h6.244c0.806-0.099 1.561-0.742 1.762-1.533l0.050-25.768-0.101-0.742zM4.078 12.266c-0.050-0.198-0.252-0.297-0.403-0.346l-0.050 0.099c0 0.742 0 1.484-0.101 2.176v-2.918c0.201-0.198 0.705-0.198 0.906 0h1.712c0 0.396-0.050 0.841 0.050 1.236-0.101-0.692-0.906-0.495-1.41-0.495l-0.101 0.099v3.759c0.101 0.099 0.101 0.247 0.252 0.297h-1.511c0-0.049-0.050-0.099-0.050-0.099 0.352-0.050 0.705-0.297 0.806-0.643-0.151-1.039 0-2.127-0.101-3.165zM6.193 18.3c0.252 0.247 0.352 0.544 0.403 0.841-0.050 0.495-0.151 0.94-0.554 1.236-0.453 0.396-1.057 0.445-1.662 0.495l-0.151 1.781c-0.101 0.099-0.302 0.049-0.453 0.049l-0.050-0.099v-3.957c-0.151-0.148-0.554-0.247-0.503-0.544 0.957 0.099 2.014 0 2.971 0.198zM6.042 29.23c-0.453 0.544-1.108 0.742-1.762 0.495-1.007-0.544-1.108-1.682-1.057-2.77 0.101-0.742 0.252-1.632 1.057-1.929 0.755-0.247 1.611 0.099 1.964 0.791 0.503 0.989 0.453 2.473-0.201 3.413zM6.747 5.292c-0.050-0.099-0.101-0.148-0.151-0.198-0.201-0.099-0.302 0.099-0.352 0.247l-0.101 3.116c-0.050 0.099-0.101 0.247-0.151 0.396l-0.050-2.572c-0.050-0.148-0.252-0.247-0.352-0.148-1.007 0.94-1.863 2.028-2.82 2.918h-0.101c-0.101-1.533-0.050-3.165-0.050-4.748 0.201-0.297 0.856-0.247 1.057-0.049 0.050 0.643-0.151 1.434 0.352 1.879 0.352-0.049 0.453-0.396 0.655-0.643 0.252-0.396 0.453-0.89 0.806-1.236h1.158c0.151 0.297 0.050 0.692 0.101 1.039z"></path>
</symbol>

</defs>
</svg>
